#!OML:ASF H:\Pregnant\Project 1\Capture day 1\Session 1\femalepreg.ASF
:FULLY-SPECIFIED
:DEGREES
1094
root -6.53652 15.7425 33.358 23.9454 -43.0078 -3.76688
lowerback -18.7886 -0.329013 -4.07331
upperback -6.48244 0.132764 -0.226054
thorax 3.51928 0.0163754 2.09577
lowerneck -13.6148 2.00015 4.21747
upperneck 21.6489 2.25206 -2.40016
head 9.11844 1.09551 -1.26845
rclavicle -2.55003e-014 2.78299e-014
rhumerus -39.996 2.21675 -80.9507
rradius 25.2623
rwrist -0.166917
rhand -15.0591 -13.8295
rfingers 7.12502
rthumb 11.1077 -43.5155
lclavicle -2.55003e-014 2.78299e-014
lhumerus -29.6354 1.49901 75.1098
lradius 41.614
lwrist 44.1155
lhand -31.9667 -4.41408
lfingers 7.12502
lthumb -5.21656 25.5017
rfemur -39.3767 25.1251 10.9036
rtibia 31.1599
rfoot -11.9679 -4.6238
rtoes -20.5905
lfemur -29.03 -3.85453 -18.4784
ltibia 19.3751
lfoot -12.2671 -5.92748
ltoes -15.8563
1095
root -6.52115 15.7404 33.3783 23.9187 -43.2607 -3.87374
lowerback -18.7873 -0.372173 -3.91592
upperback -6.44599 0.0443231 -0.139508
thorax 3.56454 -0.0292122 2.0796
lowerneck -13.5861 2.20028 4.42954
upperneck 21.7768 2.57539 -2.79581
head 9.17749 1.22055 -1.40194
rclavicle -1.23837e-014 -7.07673e-014
rhumerus -39.892 2.0568 -80.8256
rradius 25.4083
rwrist -0.350675
rhand -15.2078 -13.6949
rfingers 7.12502
rthumb 10.9643 -43.3886
lclavicle -1.23837e-014 -7.07673e-014
lhumerus -29.8407 1.6489 75.1529
lradius 41.5809
lwrist 44.0613
lhand -31.8928 -4.35548
lfingers 7.12502
lthumb -5.14518 25.5621
rfemur -39.2774 25.1771 10.9057
rtibia 31.1244
rfoot -11.9771 -4.44106
rtoes -20.6196
lfemur -28.8739 -3.89704 -18.5135
ltibia 19.4246
lfoot -12.2396 -5.70853
ltoes -15.542
1096
root -6.50722 15.7383 33.3982 23.8879 -43.5238 -3.94445
lowerback -18.8177 -0.426305 -3.8039
upperback -6.40455 -0.0491762 -0.0508539
thorax 3.63135 -0.0774331 2.0903
lowerneck -13.5649 2.39999 4.62462
upperneck 21.886 2.89787 -3.17052
head 9.23316 1.34581 -1.52546
rclavicle 1.62227e-014 -2.8625e-014
rhumerus -39.7707 1.88307 -80.6971
rradius 25.5743
rwrist -0.503811
rhand -15.3797 -13.5749
rfingers 7.12502
rthumb 10.7985 -43.2773
lclavicle 1.62227e-014 -2.8625e-014
lhumerus -30.0339 1.76823 75.2235
lradius 41.4648
lwrist 44.0046
lhand -31.7925 -4.28791
lfingers 7.12502
lthumb -5.04838 25.632
rfemur -39.2223 25.2459 10.8621
rtibia 31.117
rfoot -11.9843 -4.28755
rtoes -20.6414
lfemur -28.717 -3.96975 -18.5642
ltibia 19.4366
lfoot -12.1853 -5.44864
ltoes -15.2038
1097
root -6.49486 15.7364 33.4179 23.8564 -43.8009 -3.99246
lowerback -18.8712 -0.48731 -3.73182
upperback -6.36576 -0.144466 0.0460418
thorax 3.70719 -0.126415 2.13192
lowerneck -13.5428 2.59498 4.79383
upperneck 21.9878 3.21606 -3.52566
head 9.28725 1.4688 -1.63846
rclavicle 6.17475e-015 -4.77083e-015
rhumerus -39.6689 1.73711 -80.5761
rradius 25.7939
rwrist -0.666291
rhand -15.5621 -13.4746
rfingers 7.12502
rthumb 10.6226 -43.1861
lclavicle 6.17475e-015 -4.77083e-015
lhumerus -30.2329 1.84177 75.3355
lradius 41.2612
lwrist 43.9382
lhand -31.6997 -4.26154
lfingers 7.12502
lthumb -4.95873 25.6604
rfemur -39.1999 25.3244 10.7911
rtibia 31.1337
rfoot -11.9962 -4.14794
rtoes -20.6378
lfemur -28.5536 -4.03081 -18.6335
ltibia 19.414
lfoot -12.1219 -5.18609
ltoes -14.8652
1098
root -6.48402 15.7347 33.4373 23.8286 -44.0958 -4.02403
lowerback -18.9523 -0.54315 -3.6835
upperback -6.32644 -0.227754 0.139245
thorax 3.79713 -0.16967 2.18554
lowerneck -13.5244 2.77743 4.94279
upperneck 22.0829 3.51705 -3.85954
head 9.34007 1.58415 -1.74282
rclavicle -3.27808e-014 4.13472e-014
rhumerus -39.5897 1.59104 -80.4626
rradius 26.0706
rwrist -0.835458
rhand -15.7344 -13.3549
rfingers 7.12502
rthumb 10.4564 -43.0748
lclavicle -3.27808e-014 4.13472e-014
lhumerus -30.4225 1.84852 75.4883
lradius 40.9666
lwrist 43.8571
lhand -31.6143 -4.29058
lfingers 7.12502
lthumb -4.87634 25.6333
rfemur -39.2087 25.4218 10.6941
rtibia 31.1675
rfoot -12.0085 -4.0259
rtoes -20.6045
lfemur -28.3879 -4.06498 -18.7202
ltibia 19.3665
lfoot -12.0719 -4.93392
ltoes -14.6085
1099
root -6.47457 15.7332 33.4567 23.7898 -44.3989 -4.04812
lowerback -19.0465 -0.58112 -3.6369
upperback -6.28749 -0.286464 0.220759
thorax 3.89205 -0.200933 2.23289
lowerneck -13.4955 2.93256 5.05327
upperneck 22.1787 3.78067 -4.15436
head 9.38936 1.68298 -1.83199
rclavicle -1.0025e-013 -3.18055e-015
rhumerus -39.5441 1.40994 -80.3476
rradius 26.398
rwrist -1.01138
rhand -15.9069 -13.195
rfingers 7.12502
rthumb 10.2899 -42.9233
lclavicle -1.0025e-013 -3.18055e-015
lhumerus -30.6057 1.74824 75.6884
lradius 40.5817
lwrist 43.7732
lhand -31.5682 -4.35874
lfingers 7.12502
lthumb -4.83175 25.5662
rfemur -39.2132 25.5232 10.6001
rtibia 31.2113
rfoot -12.0275 -3.90937
rtoes -20.5468
lfemur -28.2024 -4.03799 -18.8292
ltibia 19.3038
lfoot -12.0472 -4.73492
ltoes -14.427
1100
root -6.46642 15.7316 33.476 23.748 -44.7156 -4.07233
lowerback -19.1477 -0.613326 -3.60183
upperback -6.24525 -0.335402 0.303122
thorax 3.9935 -0.227431 2.28975
lowerneck -13.4836 3.07672 5.14135
upperneck 22.2842 4.02865 -4.42519
head 9.44465 1.7748 -1.91098
rclavicle -7.75819e-014 1.03368e-014
rhumerus -39.5045 1.22556 -80.2376
rradius 26.7575
rwrist -1.19646
rhand -16.0437 -13.0126
rfingers 7.12502
rthumb 10.158 -42.7474
lclavicle -7.75819e-014 1.03368e-014
lhumerus -30.7778 1.59136 75.9223
lradius 40.1163
lwrist 43.6952
lhand -31.5156 -4.3801
lfingers 7.12502
lthumb -4.78103 25.546
rfemur -39.2177 25.6404 10.5074
rtibia 31.261
rfoot -12.0509 -3.80132
rtoes -20.4618
lfemur -28.0022 -3.96828 -18.9483
ltibia 19.2321
lfoot -12.0438 -4.5627
ltoes -14.3146
1101
root -6.45912 15.73 33.4953 23.6958 -45.0486 -4.09082
lowerback -19.2454 -0.63892 -3.57378
upperback -6.20196 -0.374332 0.378778
thorax 4.09372 -0.248981 2.34561
lowerneck -13.4988 3.21518 5.23475
upperneck 22.4131 4.2649 -4.68515
head 9.51367 1.86202 -1.98851
rclavicle 9.12608e-014 1.82882e-014
rhumerus -39.4645 1.02786 -80.1404
rradius 27.1348
rwrist -1.39325
rhand -16.1183 -12.8219
rfingers 7.12502
rthumb 10.086 -42.5602
lclavicle 9.12608e-014 1.82882e-014
lhumerus -30.9428 1.36611 76.1827
lradius 39.5788
lwrist 43.6325
lhand -31.4718 -4.35433
lfingers 7.12502
lthumb -4.73872 25.5727
rfemur -39.2163 25.7603 10.417
rtibia 31.3145
rfoot -12.0803 -3.68406
rtoes -20.3628
lfemur -27.7854 -3.86916 -19.0798
ltibia 19.1556
lfoot -12.0521 -4.40178
ltoes -14.1979
1102
root -6.45239 15.7284 33.5145 23.6462 -45.4027 -4.11075
lowerback -19.3411 -0.653893 -3.55291
upperback -6.16554 -0.398784 0.456859
thorax 4.1846 -0.263194 2.41137
lowerneck -13.5305 3.34254 5.31149
upperneck 22.5663 4.48794 -4.93552
head 9.59408 1.94195 -2.06166
rclavicle -2.27919e-014 -3.97569e-016
rhumerus -39.4454 0.855582 -80.0543
rradius 27.5477
rwrist -1.64393
rhand -16.136 -12.6478
rfingers 7.12502
rthumb 10.0689 -42.3869
lclavicle -2.27919e-014 -3.97569e-016
lhumerus -31.112 1.07057 76.4931
lradius 38.9717
lwrist 43.5746
lhand -31.4434 -4.29449
lfingers 7.12502
lthumb -4.71125 25.6331
rfemur -39.2199 25.8715 10.332
rtibia 31.3712
rfoot -12.1193 -3.53887
rtoes -20.2572
lfemur -27.5622 -3.75914 -19.2133
ltibia 19.0769
lfoot -12.0654 -4.22438
ltoes -14.0835
1103
root -6.44608 15.7269 33.5336 23.5992 -45.7827 -4.1319
lowerback -19.4332 -0.65923 -3.54142
upperback -6.13515 -0.409645 0.537635
thorax 4.26624 -0.270533 2.48847
lowerneck -13.589 3.46177 5.37906
upperneck 22.748 4.70047 -5.17811
head 9.68966 2.01599 -2.13192
rclavicle -1.54679e-015 -3.57812e-015
rhumerus -39.4322 0.689059 -79.9705
rradius 27.9685
rwrist -1.93034
rhand -16.1002 -12.4899
rfingers 7.12502
rthumb 10.1035 -42.2274
lclavicle -1.54679e-015 -3.57812e-015
lhumerus -31.2899 0.710854 76.8524
lradius 38.3056
lwrist 43.5224
lhand -31.4174 -4.20776
lfingers 7.12502
lthumb -4.68622 25.7204
rfemur -39.2286 25.9696 10.2524
rtibia 31.4296
rfoot -12.1669 -3.35349
rtoes -20.1329
lfemur -27.3319 -3.65473 -19.3449
ltibia 18.9959
lfoot -12.0805 -4.01058
ltoes -13.9555
1104
root -6.43988 15.7252 33.5512 23.5595 -46.1777 -4.15338
lowerback -19.5205 -0.64603 -3.53428
upperback -6.11137 -0.395647 0.61222
thorax 4.33657 -0.265446 2.56719
lowerneck -13.6595 3.56363 5.42738
upperneck 22.9418 4.88815 -5.39645
head 9.79025 2.07879 -2.19372
rclavicle 9.64913e-014 4.29375e-014
rhumerus -39.4285 0.470796 -79.8689
rradius 28.3869
rwrist -2.2219
rhand -16.0524 -12.3558
rfingers 7.12502
rthumb 10.1496 -42.091
lclavicle 9.64913e-014 4.29375e-014
lhumerus -31.4589 0.293998 77.2501
lradius 37.5994
lwrist 43.4845
lhand -31.3284 -3.96358
lfingers 7.12502
lthumb -4.60022 25.9665
rfemur -39.2562 26.065 10.1689
rtibia 31.4874
rfoot -12.2086 -3.14715
rtoes -20.028
lfemur -27.1124 -3.55008 -19.4724
ltibia 18.9145
lfoot -12.0921 -3.77465
ltoes -13.8374
1105
root -6.43369 15.7236 33.5688 23.5289 -46.5972 -4.17748
lowerback -19.6041 -0.629006 -3.53909
upperback -6.1013 -0.376009 0.697945
thorax 4.38983 -0.257257 2.66608
lowerneck -13.719 3.66559 5.45498
upperneck 23.143 5.07806 -5.59667
head 9.89139 2.14237 -2.24568
rclavicle 6.55989e-014 3.33958e-014
rhumerus -39.4625 0.342539 -79.7935
rradius 28.8452
rwrist -2.60857
rhand -16.0029 -12.2702
rfingers 7.12502
rthumb 10.1974 -42.003
lclavicle 6.55989e-014 3.33958e-014
lhumerus -31.6554 -0.142332 77.6879
lradius 36.8653
lwrist 43.4638
lhand -31.1875 -3.61732
lfingers 7.12502
lthumb -4.46422 26.3156
rfemur -39.2957 26.1417 10.0874
rtibia 31.5438
rfoot -12.2596 -2.89381
rtoes -19.9027
lfemur -26.8936 -3.45643 -19.5978
ltibia 18.8308
lfoot -12.1028 -3.49842
ltoes -13.7263
1106
root -6.42735 15.7222 33.5859 23.5131 -47.0351 -4.20611
lowerback -19.691 -0.60586 -3.54272
upperback -6.09897 -0.349115 0.784841
thorax 4.43583 -0.245438 2.76738
lowerneck -13.7743 3.76642 5.4759
upperneck 23.3399 5.26499 -5.78086
head 9.99031 2.20543 -2.29132
rclavicle -2.25372e-014 -4.09496e-014
rhumerus -39.5136 0.269505 -79.7452
rradius 29.3135
rwrist -3.06624
rhand -15.989 -12.1896
rfingers 7.12502
rthumb 10.2108 -41.9218
lclavicle -2.25372e-014 -4.09496e-014
lhumerus -31.8622 -0.617684 78.1617
lradius 36.0969
lwrist 43.4335
lhand -31.0349 -3.28055
lfingers 7.12502
lthumb -4.31684 26.6554
rfemur -39.3519 26.1929 10.0093
rtibia 31.5983
rfoot -12.3183 -2.59177
rtoes -19.7597
lfemur -26.6834 -3.37258 -19.7193
ltibia 18.7446
lfoot -12.1118 -3.19207
ltoes -13.6333
1107
root -6.4209 15.7207 33.6032 23.4922 -47.4823 -4.22886
lowerback -19.7735 -0.579371 -3.54248
upperback -6.0998 -0.318757 0.867085
thorax 4.47581 -0.231872 2.86246
lowerneck -13.8147 3.86976 5.48934
upperneck 23.5223 5.45217 -5.94103
head 10.0811 2.27067 -2.32722
rclavicle 1.39398e-014 1.47101e-014
rhumerus -39.5722 0.241451 -79.7263
rradius 29.7836
rwrist -3.57055
rhand -15.9884 -12.1306
rfingers 7.12502
rthumb 10.2114 -41.8628
lclavicle 1.39398e-014 1.47101e-014
lhumerus -32.0844 -1.14052 78.6685
lradius 35.3078
lwrist 43.3981
lhand -30.8884 -2.97592
lfingers 7.12502
lthumb -4.1754 26.9629
rfemur -39.4045 26.2159 9.937
rtibia 31.6512
rfoot -12.3892 -2.2519
rtoes -19.6251
lfemur -26.4663 -3.31051 -19.8427
ltibia 18.6533
lfoot -12.1168 -2.85296
ltoes -13.555
